
<svg xmlns="http://www.w3.org/2000/svg" width="100" height="80" viewBox="520 750 100 90" fill="none">

<rect width="603" height="228" transform="translate(242 728)" fill="white"/>
<path fill-rule="evenodd" clip-rule="evenodd" d="M531.147 771C536.154 771 540.448 773.854 542.604 777.975C545.25 776.793 548.197 776.134 551.302 776.134C562.701 776.134 572 785.027 572 796.067C572 807.107 562.7 816 551.302 816L527.116 816C518.8 816 512 809.51 512 801.433C512 796.181 514.881 791.597 519.175 789.037C518.547 787.5 518.202 785.818 518.202 784.059C518.202 776.92 523.924 771 531.147 771ZM522.388 784.059C522.388 779.033 526.383 775.091 531.147 775.091C534.54 775.091 537.534 777.08 538.985 780.047C536.365 781.918 534.218 784.372 532.753 787.216C532.652 787.41 532.555 787.606 532.462 787.804C532.275 787.736 532.087 787.672 531.897 787.611C530.392 787.128 528.784 786.867 527.116 786.867C525.699 786.867 524.324 787.055 523.019 787.409C522.612 786.377 522.388 785.247 522.388 784.059Z" fill="#FCA311"/>
<path fill-rule="evenodd" clip-rule="evenodd" d="M531.147 771C536.154 771 540.448 773.854 542.604 777.975C545.25 776.793 548.197 776.134 551.302 776.134C562.701 776.134 572 785.027 572 796.067C572 807.107 562.7 816 551.302 816L527.116 816C518.8 816 512 809.51 512 801.433C512 796.181 514.881 791.597 519.175 789.037C518.547 787.5 518.202 785.818 518.202 784.059C518.202 776.92 523.924 771 531.147 771ZM522.388 784.059C522.388 779.033 526.383 775.091 531.147 775.091C534.54 775.091 537.534 777.08 538.985 780.047C536.365 781.918 534.218 784.372 532.753 787.216C532.652 787.41 532.555 787.606 532.462 787.804C532.275 787.736 532.087 787.672 531.897 787.611C530.392 787.128 528.784 786.867 527.116 786.867C525.699 786.867 524.324 787.055 523.019 787.409C522.612 786.377 522.388 785.247 522.388 784.059Z" fill="url(#paint11_linear_0_1)"/>
<defs>
<linearGradient id="paint0_linear_0_1" x1="760" y1="866.778" x2="789.245" y2="924.311" gradientUnits="userSpaceOnUse">
<stop stop-color="#09C6F9"/>
<stop offset="1" stop-color="#045DE9"/>
</linearGradient>
<linearGradient id="paint1_linear_0_1" x1="760" y1="866.778" x2="789.245" y2="924.311" gradientUnits="userSpaceOnUse">
<stop stop-color="#09C6F9"/>
<stop offset="1" stop-color="#045DE9"/>
</linearGradient>
<linearGradient id="paint2_linear_0_1" x1="760" y1="866.778" x2="789.245" y2="924.311" gradientUnits="userSpaceOnUse">
<stop stop-color="#09C6F9"/>
<stop offset="1" stop-color="#045DE9"/>
</linearGradient>
<linearGradient id="paint3_linear_0_1" x1="760" y1="866.778" x2="789.245" y2="924.311" gradientUnits="userSpaceOnUse">
<stop stop-color="#09C6F9"/>
<stop offset="1" stop-color="#045DE9"/>
</linearGradient>
<linearGradient id="paint4_linear_0_1" x1="639" y1="866.778" x2="668.245" y2="924.311" gradientUnits="userSpaceOnUse">
<stop stop-color="#09C6F9"/>
<stop offset="1" stop-color="#045DE9"/>
</linearGradient>
<linearGradient id="paint5_linear_0_1" x1="639" y1="866.778" x2="668.245" y2="924.311" gradientUnits="userSpaceOnUse">
<stop stop-color="#09C6F9"/>
<stop offset="1" stop-color="#045DE9"/>
</linearGradient>
<linearGradient id="paint6_linear_0_1" x1="639" y1="866.778" x2="668.245" y2="924.311" gradientUnits="userSpaceOnUse">
<stop stop-color="#09C6F9"/>
<stop offset="1" stop-color="#045DE9"/>
</linearGradient>
<linearGradient id="paint7_linear_0_1" x1="639" y1="866.778" x2="668.245" y2="924.311" gradientUnits="userSpaceOnUse">
<stop stop-color="#09C6F9"/>
<stop offset="1" stop-color="#045DE9"/>
</linearGradient>
<linearGradient id="paint8_linear_0_1" x1="518" y1="860.718" x2="559.936" y2="925.635" gradientUnits="userSpaceOnUse">
<stop stop-color="#09C6F9"/>
<stop offset="1" stop-color="#045DE9"/>
</linearGradient>
<linearGradient id="paint9_linear_0_1" x1="760" y1="768.778" x2="789.245" y2="826.311" gradientUnits="userSpaceOnUse">
<stop stop-color="#09C6F9"/>
<stop offset="1" stop-color="#045DE9"/>
</linearGradient>
<linearGradient id="paint10_linear_0_1" x1="633" y1="770.792" x2="655.593" y2="830.053" gradientUnits="userSpaceOnUse">
<stop stop-color="#09C6F9"/>
<stop offset="1" stop-color="#045DE9"/>
</linearGradient>
<linearGradient id="paint11_linear_0_1" x1="512" y1="770.792" x2="534.593" y2="830.053" gradientUnits="userSpaceOnUse">
<stop stop-color="#09C6F9"/>
<stop offset="1" stop-color="#045DE9"/>
</linearGradient>
<linearGradient id="paint12_linear_0_1" x1="351" y1="842.852" x2="370.497" y2="881.207" gradientUnits="userSpaceOnUse">
<stop stop-color="#09C6F9"/>
<stop offset="1" stop-color="#045DE9"/>
</linearGradient>
<linearGradient id="paint13_linear_0_1" x1="391" y1="842.852" x2="410.497" y2="881.207" gradientUnits="userSpaceOnUse">
<stop stop-color="#09C6F9"/>
<stop offset="1" stop-color="#045DE9"/>
</linearGradient>
<linearGradient id="paint14_linear_0_1" x1="311" y1="842.852" x2="330.497" y2="881.207" gradientUnits="userSpaceOnUse">
<stop stop-color="#09C6F9"/>
<stop offset="1" stop-color="#045DE9"/>
</linearGradient>
<linearGradient id="paint15_linear_0_1" x1="271" y1="842.852" x2="290.497" y2="881.207" gradientUnits="userSpaceOnUse">
<stop stop-color="#09C6F9"/>
<stop offset="1" stop-color="#045DE9"/>
</linearGradient>
<clipPath id="clip0_0_1">
<rect width="544" height="420" fill="white" transform="translate(0 39)"/>
</clipPath>
</defs>
</svg>