<svg width="100" height="80" viewBox="640 750 100 90" fill="none" xmlns="http://www.w3.org/2000/svg">

<rect width="603" height="228" transform="translate(242 728)" fill="white"/>
<path fill-rule="evenodd" clip-rule="evenodd" d="M652.147 771C657.154 771 661.448 773.854 663.604 777.975C666.25 776.793 669.197 776.134 672.302 776.134C683.701 776.134 693 785.027 693 796.067C693 807.107 683.7 816 672.302 816L648.116 816C639.8 816 633 809.51 633 801.433C633 796.181 635.881 791.597 640.175 789.037C639.547 787.5 639.202 785.818 639.202 784.059C639.202 776.92 644.924 771 652.147 771ZM643.388 784.059C643.388 779.033 647.383 775.091 652.147 775.091C655.54 775.091 658.534 777.08 659.985 780.047C657.365 781.918 655.218 784.372 653.753 787.216C653.652 787.41 653.555 787.606 653.462 787.804C653.275 787.736 653.087 787.672 652.897 787.611C651.392 787.128 649.784 786.867 648.116 786.867C646.699 786.867 645.324 787.055 644.019 787.409C643.612 786.377 643.388 785.247 643.388 784.059Z" fill="#FCA311"/>
<path fill-rule="evenodd" clip-rule="evenodd" d="M652.147 771C657.154 771 661.448 773.854 663.604 777.975C666.25 776.793 669.197 776.134 672.302 776.134C683.701 776.134 693 785.027 693 796.067C693 807.107 683.7 816 672.302 816L648.116 816C639.8 816 633 809.51 633 801.433C633 796.181 635.881 791.597 640.175 789.037C639.547 787.5 639.202 785.818 639.202 784.059C639.202 776.92 644.924 771 652.147 771ZM643.388 784.059C643.388 779.033 647.383 775.091 652.147 775.091C655.54 775.091 658.534 777.08 659.985 780.047C657.365 781.918 655.218 784.372 653.753 787.216C653.652 787.41 653.555 787.606 653.462 787.804C653.275 787.736 653.087 787.672 652.897 787.611C651.392 787.128 649.784 786.867 648.116 786.867C646.699 786.867 645.324 787.055 644.019 787.409C643.612 786.377 643.388 785.247 643.388 784.059Z" fill="url(#paint10_linear_0_1)"/>
<defs>
<linearGradient id="paint0_linear_0_1" x1="760" y1="866.778" x2="789.245" y2="924.311" gradientUnits="userSpaceOnUse">
<stop stop-color="#09C6F9"/>
<stop offset="1" stop-color="#045DE9"/>
</linearGradient>
<linearGradient id="paint1_linear_0_1" x1="760" y1="866.778" x2="789.245" y2="924.311" gradientUnits="userSpaceOnUse">
<stop stop-color="#09C6F9"/>
<stop offset="1" stop-color="#045DE9"/>
</linearGradient>
<linearGradient id="paint2_linear_0_1" x1="760" y1="866.778" x2="789.245" y2="924.311" gradientUnits="userSpaceOnUse">
<stop stop-color="#09C6F9"/>
<stop offset="1" stop-color="#045DE9"/>
</linearGradient>
<linearGradient id="paint3_linear_0_1" x1="760" y1="866.778" x2="789.245" y2="924.311" gradientUnits="userSpaceOnUse">
<stop stop-color="#09C6F9"/>
<stop offset="1" stop-color="#045DE9"/>
</linearGradient>
<linearGradient id="paint4_linear_0_1" x1="639" y1="866.778" x2="668.245" y2="924.311" gradientUnits="userSpaceOnUse">
<stop stop-color="#09C6F9"/>
<stop offset="1" stop-color="#045DE9"/>
</linearGradient>
<linearGradient id="paint5_linear_0_1" x1="639" y1="866.778" x2="668.245" y2="924.311" gradientUnits="userSpaceOnUse">
<stop stop-color="#09C6F9"/>
<stop offset="1" stop-color="#045DE9"/>
</linearGradient>
<linearGradient id="paint6_linear_0_1" x1="639" y1="866.778" x2="668.245" y2="924.311" gradientUnits="userSpaceOnUse">
<stop stop-color="#09C6F9"/>
<stop offset="1" stop-color="#045DE9"/>
</linearGradient>
<linearGradient id="paint7_linear_0_1" x1="639" y1="866.778" x2="668.245" y2="924.311" gradientUnits="userSpaceOnUse">
<stop stop-color="#09C6F9"/>
<stop offset="1" stop-color="#045DE9"/>
</linearGradient>
<linearGradient id="paint8_linear_0_1" x1="518" y1="860.718" x2="559.936" y2="925.635" gradientUnits="userSpaceOnUse">
<stop stop-color="#09C6F9"/>
<stop offset="1" stop-color="#045DE9"/>
</linearGradient>
<linearGradient id="paint9_linear_0_1" x1="760" y1="768.778" x2="789.245" y2="826.311" gradientUnits="userSpaceOnUse">
<stop stop-color="#09C6F9"/>
<stop offset="1" stop-color="#045DE9"/>
</linearGradient>
<linearGradient id="paint10_linear_0_1" x1="633" y1="770.792" x2="655.593" y2="830.053" gradientUnits="userSpaceOnUse">
<stop stop-color="#09C6F9"/>
<stop offset="1" stop-color="#045DE9"/>
</linearGradient>
<linearGradient id="paint11_linear_0_1" x1="512" y1="770.792" x2="534.593" y2="830.053" gradientUnits="userSpaceOnUse">
<stop stop-color="#09C6F9"/>
<stop offset="1" stop-color="#045DE9"/>
</linearGradient>
<linearGradient id="paint12_linear_0_1" x1="351" y1="842.852" x2="370.497" y2="881.207" gradientUnits="userSpaceOnUse">
<stop stop-color="#09C6F9"/>
<stop offset="1" stop-color="#045DE9"/>
</linearGradient>
<linearGradient id="paint13_linear_0_1" x1="391" y1="842.852" x2="410.497" y2="881.207" gradientUnits="userSpaceOnUse">
<stop stop-color="#09C6F9"/>
<stop offset="1" stop-color="#045DE9"/>
</linearGradient>
<linearGradient id="paint14_linear_0_1" x1="311" y1="842.852" x2="330.497" y2="881.207" gradientUnits="userSpaceOnUse">
<stop stop-color="#09C6F9"/>
<stop offset="1" stop-color="#045DE9"/>
</linearGradient>
<linearGradient id="paint15_linear_0_1" x1="271" y1="842.852" x2="290.497" y2="881.207" gradientUnits="userSpaceOnUse">
<stop stop-color="#09C6F9"/>
<stop offset="1" stop-color="#045DE9"/>
</linearGradient>
<clipPath id="clip0_0_1">
<rect width="544" height="420" fill="white" transform="translate(0 39)"/>
</clipPath>
</defs>
</svg>